<?xml version="1.0" encoding="UTF-8"?><svg id="Ebene_2" xmlns="http://www.w3.org/2000/svg" viewBox="0 0 922.434 72.754"><defs><style>.cls-1{fill:#fff;}</style></defs><g id="Ebene_1-2"><g><path class="cls-1" d="M0,0H36.768c8.008,0,14.005,1.904,17.993,5.713,3.987,3.809,5.981,9.229,5.981,16.26,0,7.227-2.173,12.875-6.519,16.943-4.346,4.069-10.979,6.104-19.897,6.104h-12.109v26.562H0V0ZM22.217,30.518h5.42c4.264,0,7.259-.74,8.984-2.222,1.725-1.481,2.588-3.377,2.588-5.688,0-2.246-.749-4.15-2.246-5.713-1.498-1.562-4.313-2.344-8.447-2.344h-6.299v15.967Z"/><path class="cls-1" d="M65.967,45.801c0-7.91,2.669-14.429,8.008-19.556,5.338-5.127,12.549-7.69,21.631-7.69,10.384,0,18.229,3.011,23.535,9.033,4.264,4.851,6.396,10.824,6.396,17.92,0,7.976-2.645,14.51-7.935,19.604-5.29,5.095-12.606,7.642-21.948,7.642-8.333,0-15.072-2.115-20.215-6.348-6.315-5.24-9.473-12.109-9.473-20.605Zm19.922-.049c0,4.623,.936,8.041,2.808,10.254,1.872,2.214,4.224,3.32,7.056,3.32,2.864,0,5.216-1.09,7.056-3.271,1.839-2.181,2.759-5.68,2.759-10.498,0-4.492-.928-7.837-2.783-10.034s-4.15-3.296-6.885-3.296c-2.897,0-5.29,1.115-7.178,3.345-1.888,2.23-2.832,5.624-2.832,10.181Z"/><path class="cls-1" d="M135.107,0h20.312V36.949l14.844-17.223h24.463l-18.603,18.165,19.677,33.69h-22.392l-10.502-20.787-7.487,7.311v13.477h-20.312V0Z"/><path class="cls-1" d="M255.957,50.586h-39.844c.358,3.19,1.221,5.566,2.588,7.129,1.92,2.246,4.427,3.369,7.52,3.369,1.953,0,3.809-.488,5.566-1.465,1.074-.618,2.229-1.709,3.467-3.271l19.58,1.807c-2.995,5.209-6.608,8.943-10.84,11.206-4.232,2.263-10.303,3.394-18.213,3.394-6.869,0-12.272-.969-16.211-2.905-3.939-1.937-7.202-5.013-9.79-9.229s-3.882-9.171-3.882-14.868c0-8.105,2.596-14.665,7.788-19.678,5.192-5.013,12.361-7.52,21.509-7.52,7.422,0,13.281,1.123,17.578,3.369s7.568,5.501,9.814,9.766c2.246,4.265,3.369,9.814,3.369,16.65v2.246Zm-20.215-9.521c-.391-3.841-1.424-6.592-3.101-8.252-1.677-1.66-3.882-2.49-6.616-2.49-3.158,0-5.681,1.253-7.568,3.76-1.205,1.562-1.97,3.89-2.295,6.982h19.58Z"/></g><g><path class="cls-1" d="M286.532,67.883l3.7-5.001h55.704L309.133,6.979l-40.603,60.904h-6.9L305.233,2.578c.7-1.1,2.2-2.3,3.9-2.3,1.8,0,3.2,1.1,4,2.3l43.302,65.305h-69.904Z"/><path class="cls-1" d="M429.134,.978h5.4v63.405c0,2.6-1.5,3.799-3.4,3.799-.8,0-1.8-.299-2.7-1.199l-60.204-58.704v59.604h-5.4V4.079c0-2.6,1.6-3.8,3.4-3.8,.8,0,1.8,.3,2.8,1.3l60.104,58.604V.978Z"/><path class="cls-1" d="M464.833,67.883l3.7-5.001h55.703L487.434,6.979l-40.603,60.904h-6.9L483.534,2.578c.7-1.1,2.2-2.3,3.9-2.3,1.8,0,3.2,1.1,4.001,2.3l43.302,65.305h-69.904Z"/><path class="cls-1" d="M541.431,67.883V.978h5.801V62.882h57.903l-3.9,5.001h-59.804Z"/><path class="cls-1" d="M626.534,67.883v-26.102L583.631,.978h7.601l38.402,36.203L667.537,.978h7.6l-42.702,40.803v26.102h-5.9Z"/><path class="cls-1" d="M672.231,67.883l4.001-5.001h53.402c13.102,0,19.401-4.3,19.401-13.501,0-10.2-7.4-12.8-21.601-12.8h-26.803c-16.701,0-24.602-5.5-24.602-17.301,0-12.101,8.102-18.301,25.402-18.301h52.303l-3.9,5.101h-48.703c-13,0-19.501,4.3-19.501,13.501,0,10,7.401,12.5,21.702,12.5h26.9c16.302,0,24.502,5.3,24.502,17.301,0,12.301-8,18.502-25.502,18.502h-57.003Z"/><path class="cls-1" d="M763.23,67.883V.978h67.804l-3.9,5.101h-58.003V31.78h59.203l-3.5,4.5h-55.703v26.602h62.504l-3.9,5.001h-64.504Z"/><path class="cls-1" d="M914.333,67.883l-28.502-24.202h-41.803v24.202h-5.8v-29.102h47.803c13.901,0,24.901-4.8,24.901-16.001,0-11.801-10.4-16.701-24.901-16.701h-48.103l4-5.101h46.003c15.901,0,29.102,6.5,29.102,21.501,0,12.801-10.001,19.601-24.802,20.101l30.202,25.302h-8.101Z"/></g></g></svg>