<svg xmlns="http://www.w3.org/2000/svg" viewBox="0 0 94.787 94.814"><defs><style>.cls-1{fill:#4d4c4c;}</style></defs><g id="Ebene_2" data-name="Ebene 2"><g id="Ebene_2-2" data-name="Ebene 2"><path class="cls-1" d="M47.393,38.966a8.437,8.437,0,0,1,8.362,7.344H94.787A47.406,47.406,0,0,0,0,46.31H39.032A8.436,8.436,0,0,1,47.393,38.966Z"/><path class="cls-1" d="M47.393,55.848A8.44,8.44,0,0,1,39.149,49.2H.023a47.4,47.4,0,0,0,94.74,0H55.638A8.44,8.44,0,0,1,47.393,55.848Z"/><path class="cls-1" d="M42.038,47.573a5.355,5.355,0,1,0,5.355-5.355A5.355,5.355,0,0,0,42.038,47.573Zm9.926,0A4.571,4.571,0,1,1,47.393,43,4.57,4.57,0,0,1,51.964,47.573Z"/><path class="cls-1" d="M43.519,47.573A3.875,3.875,0,1,0,47.393,43.7,3.874,3.874,0,0,0,43.519,47.573Zm7.181,0a3.307,3.307,0,1,1-3.307-3.307A3.306,3.306,0,0,1,50.7,47.573Z"/></g></g></svg>